<svg width="149" height="121" viewBox="0 0 149 121" fill="none" xmlns="http://www.w3.org/2000/svg">
<path fill-rule="evenodd" clip-rule="evenodd" d="M16.8123 2.5894C10.5533 5.8504 3.46031 13.9624 1.37231 20.2474C-0.939693 27.2084 -0.247693 38.9624 2.82631 44.9394C11.5453 61.8934 33.5323 67.4124 48.7573 56.4684C54.2043 52.5524 58.8713 45.9514 60.8433 39.3744L62.5753 33.5944L63.3333 37.5474C67.8283 61.0144 98.6053 70.3884 115.36 53.3934C122.492 46.1594 124.427 41.2814 124.404 30.5944C124.387 22.8164 124.024 20.9064 121.731 16.5314C118.636 10.6234 112.423 4.67939 106.56 2.01639C100.256 -0.84561 87.0113 -0.625604 80.4033 2.4514C73.2713 5.7724 66.4163 13.7244 64.0553 21.4154L62.1783 27.5304L61.4273 24.0624C59.4573 14.9584 52.1173 5.90239 43.5603 2.01639C37.1353 -0.90061 22.9283 -0.596604 16.8123 2.5894ZM36.2393 18.2194C40.2703 20.2954 42.9383 23.4364 43.9903 27.3444C45.3813 32.5104 43.8193 37.1004 39.3273 41.0444C36.5523 43.4814 34.9463 44.0944 31.3393 44.0944C24.8783 44.0944 21.1243 41.8034 18.7353 36.4014C16.5593 31.4834 16.7923 27.4694 19.4923 23.3494C22.9613 18.0544 31.0863 15.5654 36.2393 18.2194ZM99.8843 18.5744C106.853 22.1784 109.379 29.4554 106.049 36.3334C102.473 43.7214 94.2793 46.3984 86.9093 42.5874C82.9123 40.5204 79.4453 33.2344 80.3373 28.7754C82.1723 19.6004 91.9753 14.4844 99.8843 18.5744ZM130.923 64.4394L120.423 70.6944V87.5374V104.379L131.397 110.737C137.432 114.233 142.945 117.094 143.647 117.094C144.349 117.094 145.823 116.194 146.923 115.094C148.818 113.199 148.923 111.761 148.923 87.8174C148.923 60.5454 148.475 58.0394 143.616 58.1394C142.41 58.1644 136.698 60.9994 130.923 64.4394ZM46.4233 63.4434C40.9153 66.3364 39.6443 66.5944 30.9213 66.5944C22.7043 66.5944 20.7093 66.2434 16.1713 63.9974L10.9233 61.4004V89.1754C10.9233 113.093 11.1413 117.169 12.4943 118.523C13.8803 119.908 19.8413 120.094 62.9233 120.094C106.005 120.094 111.966 119.908 113.352 118.523C114.705 117.169 114.923 113.071 114.923 88.9394C114.923 73.5334 114.585 61.1004 114.173 61.3124C104.36 66.3414 103.391 66.5934 93.8343 66.5934C84.9753 66.5944 83.7663 66.3474 77.9443 63.3444C72.0553 60.3074 71.0123 60.1014 62.0333 60.1934C53.2903 60.2834 51.8823 60.5774 46.4233 63.4434Z" fill="#642D6B"/>
</svg>
